<svg width="148" height="208" viewBox="0 0 148 208" fill="none" xmlns="http://www.w3.org/2000/svg">
<mask id="path-1-inside-1_6_46" fill="white">
<path d="M148 207.5H0V33.5H148V207.5ZM74 44.5C70.6863 44.5 68 47.1863 68 50.5C68 53.8137 70.6863 56.5 74 56.5C77.3137 56.5 80 53.8137 80 50.5C80 47.1863 77.3137 44.5 74 44.5Z"/>
</mask>
<path d="M148 207.5H0V33.5H148V207.5ZM74 44.5C70.6863 44.5 68 47.1863 68 50.5C68 53.8137 70.6863 56.5 74 56.5C77.3137 56.5 80 53.8137 80 50.5C80 47.1863 77.3137 44.5 74 44.5Z" fill="#E2E2E2"/>
<path d="M148 207.5V210.5H151V207.5H148ZM0 207.5H-3V210.5H0V207.5ZM0 33.5V30.5H-3V33.5H0ZM148 33.5H151V30.5H148V33.5ZM148 207.5V204.5H0V207.5V210.5H148V207.5ZM0 207.5H3V33.5H0H-3V207.5H0ZM0 33.5V36.5H148V33.5V30.5H0V33.5ZM148 33.5H145V207.5H148H151V33.5H148ZM74 44.5V41.5C69.0294 41.5 65 45.5294 65 50.5H68H71C71 48.8431 72.3431 47.5 74 47.5V44.5ZM68 50.5H65C65 55.4706 69.0294 59.5 74 59.5V56.5V53.5C72.3431 53.5 71 52.1569 71 50.5H68ZM74 56.5V59.5C78.9706 59.5 83 55.4706 83 50.5H80H77C77 52.1569 75.6569 53.5 74 53.5V56.5ZM80 50.5H83C83 45.5294 78.9706 41.5 74 41.5V44.5V47.5C75.6569 47.5 77 48.8431 77 50.5H80Z" fill="black" mask="url(#path-1-inside-1_6_46)"/>
<path d="M69 46C69.5 47 71.5 48.5 73.5 48.5C78.7467 48.5 83 37.9787 83 25C83 12.0213 78.7467 1.5 73.5 1.5C68.2533 1.5 64 12.0213 64 25C64 28.4668 64.235 31.9036 64.7167 35" stroke="black" stroke-width="3"/>
</svg>
